name analog
datacolumns 19
datarows 71
range 0.3715 0.40650000000000003
endheader
time	ground_force_vx	ground_force_vy	ground_force_vz	ground_force_px	ground_force_py	ground_force_pz	l_ground_force_vx	l_ground_force_vy	l_ground_force_vz	l_ground_force_px	l_ground_force_py	l_ground_force_pz	ground_torque_x	ground_torque_y	ground_torque_z	l_ground_torque_x	l_ground_torque_y	l_ground_torque_z
0.3715	-0.0	-0.0	-0.0	-0.0	-0.0	-0.0	8.516507148742676	2.562681198120117	-856.4752807617188	-0.0	-0.0	-0.0	-0.0	-0.0	-0.0	258396.03125	-8269.873046875	421.8227233886719
0.372	-0.0	-0.0	-0.0	-0.0	-0.0	-0.0	7.452052593231201	3.619463443756104	-862.0484619140625	-0.0	-0.0	-0.0	-0.0	-0.0	-0.0	259926.140625	-7920.51708984375	272.7319641113281
0.3725	-0.0	-0.0	-0.0	-0.0	-0.0	-0.0	5.942461490631104	3.5347940921783447	-867.6371459960938	-0.0	-0.0	-0.0	-0.0	-0.0	-0.0	261453.40625	-7189.20166015625	-557.8455810546875
0.373	-0.0	-0.0	-0.0	-0.0	-0.0	-0.0	4.258545875549316	4.504405975341797	-871.83154296875	-0.0	-0.0	-0.0	-0.0	-0.0	-0.0	263447.40625	-6873.61767578125	-825.9908447265625
0.3735	-0.0	-0.0	-0.0	-0.0	-0.0	-0.0	3.992488384246826	6.004872798919678	-877.7652587890625	-0.0	-0.0	-0.0	-0.0	-0.0	-0.0	264953.125	-6422.251953125	-914.37939453125
0.374	-0.0	-0.0	-0.0	-0.0	-0.0	-0.0	4.788699626922607	7.683428287506103	-881.95263671875	-0.0	-0.0	-0.0	-0.0	-0.0	-0.0	265853.71875	-6318.81103515625	-735.6810302734375
0.3745	-0.0	-0.0	-0.0	-0.0	-0.0	-0.0	6.741417407989502	9.36329746246338	-882.3085327148438	-0.0	-0.0	-0.0	-0.0	-0.0	-0.0	266026.84375	-5802.06689453125	125.62760925292967
0.375	-0.0	-0.0	-0.0	-0.0	-0.0	-0.0	8.955728530883789	10.858850479125977	-880.2031860351562	-0.0	-0.0	-0.0	-0.0	-0.0	-0.0	265153.4375	-5157.05322265625	1017.0258178710938
0.3755	-0.0	-0.0	-0.0	-0.0	-0.0	-0.0	10.026472091674805	10.862853050231934	-875.3174438476562	-0.0	-0.0	-0.0	-0.0	-0.0	-0.0	263695.96875	-3530.34619140625	1523.4761962890625
0.376	-0.0	-0.0	-0.0	-0.0	-0.0	-0.0	9.316218376159668	10.071829795837402	-869.7241821289062	-0.0	-0.0	-0.0	-0.0	-0.0	-0.0	261361.046875	-2462.89501953125	1551.4488525390625
0.3765	-0.0	-0.0	-0.0	-0.0	-0.0	-0.0	5.504322528839111	9.538742065429688	-864.1268310546875	-0.0	-0.0	-0.0	-0.0	-0.0	-0.0	259536.40625	-759.2823486328125	718.8434448242188
0.377	-0.0	-0.0	-0.0	-0.0	-0.0	-0.0	0.2732598781585693	8.036386489868164	-859.6253662109375	-0.0	-0.0	-0.0	-0.0	-0.0	-0.0	258424.75	810.5033569335938	-650.0753173828125
0.3775	-0.0	-0.0	-0.0	-0.0	-0.0	-0.0	-5.139430046081543	6.803654670715332	-860.3019409179688	-0.0	-0.0	-0.0	-0.0	-0.0	-0.0	257901.28125	1911.5501708984373	-2195.774169921875
0.378	-0.0	-0.0	-0.0	-0.0	-0.0	-0.0	-9.40231990814209	5.562228202819824	-861.35302734375	-0.0	-0.0	-0.0	-0.0	-0.0	-0.0	258231.78125	3302.197021484375	-3210.01708984375
0.3785	-0.0	-0.0	-0.0	-0.0	-0.0	-0.0	-11.796404838562012	4.947074890136719	-863.451904296875	-0.0	-0.0	-0.0	-0.0	-0.0	-0.0	258665.6875	3986.019287109375	-3772.685546875
0.379	-0.0	-0.0	-0.0	-0.0	-0.0	-0.0	-11.447110176086426	4.501002311706543	-864.1636962890625	-0.0	-0.0	-0.0	-0.0	-0.0	-0.0	259021.765625	4875.70947265625	-3568.968994140625
0.3795	-0.0	-0.0	-0.0	-0.0	-0.0	-0.0	-10.206527709960938	3.62357234954834	-866.919921875	-0.0	-0.0	-0.0	-0.0	-0.0	-0.0	259341.640625	5296.17138671875	-2975.5439453125
0.38	-0.0	-0.0	-0.0	-0.0	-0.0	-0.0	-9.755642890930176	4.146054267883301	-867.9859619140625	-0.0	-0.0	-0.0	-0.0	-0.0	-0.0	259834.5	6136.47119140625	-2854.4833984375
0.3805	-0.0	-0.0	-0.0	-0.0	-0.0	-0.0	-9.678544998168944	4.851243019104004	-869.71630859375	-0.0	-0.0	-0.0	-0.0	-0.0	-0.0	260262.71875	6609.9189453125	-2916.193115234375
0.381	-0.0	-0.0	-0.0	-0.0	-0.0	-0.0	-10.732650756835938	5.479989528656006	-872.5352172851562	-0.0	-0.0	-0.0	-0.0	-0.0	-0.0	262002.5	7305.99951171875	-3357.3720703125
0.3815	-0.0	-0.0	-0.0	-0.0	-0.0	-0.0	-11.709823608398438	7.417598724365234	-880.8983154296875	-0.0	-0.0	-0.0	-0.0	-0.0	-0.0	263888.78125	7258.7265625	-3919.2294921875
0.382	-0.0	-0.0	-0.0	-0.0	-0.0	-0.0	-11.61964225769043	9.710994720458984	-888.2474975585938	-0.0	-0.0	-0.0	-0.0	-0.0	-0.0	266865.6875	7438.27587890625	-3895.71923828125
0.3825	-0.0	-0.0	-0.0	-0.0	-0.0	-0.0	-9.85301113128662	12.71071434020996	-896.5972900390625	-0.0	-0.0	-0.0	-0.0	-0.0	-0.0	269417.9375	7590.31982421875	-3506.69091796875
0.383	-0.0	-0.0	-0.0	-0.0	-0.0	-0.0	-6.925853729248047	14.303324699401855	-905.3627319335938	-0.0	-0.0	-0.0	-0.0	-0.0	-0.0	271908.46875	7003.2265625	-2849.576416015625
0.3835	-0.0	-0.0	-0.0	-0.0	-0.0	-0.0	-2.8502519130706787	15.616572380065918	-907.7618408203124	-0.0	-0.0	-0.0	-0.0	-0.0	-0.0	272434.125	6936.208984375	-1721.3232421875
0.384	-0.0	-0.0	-0.0	-0.0	-0.0	-0.0	0.6123814582824707	15.366262435913086	-904.2824096679688	-0.0	-0.0	-0.0	-0.0	-0.0	-0.0	271979.625	7071.95458984375	-648.2703247070312
0.3845	-0.0	-0.0	-0.0	-0.0	-0.0	-0.0	2.5743722915649414	15.276147842407228	-897.347412109375	-0.0	-0.0	-0.0	-0.0	-0.0	-0.0	269352.0	7754.689453125	271.5105895996094
0.385	-0.0	-0.0	-0.0	-0.0	-0.0	-0.0	2.5762827396392822	13.787318229675291	-888.24169921875	-0.0	-0.0	-0.0	-0.0	-0.0	-0.0	266453.4375	8683.0888671875	334.0931396484375
0.3855	-0.0	-0.0	-0.0	-0.0	-0.0	-0.0	1.4231926202774048	11.748685836791992	-877.1064453125	-0.0	-0.0	-0.0	-0.0	-0.0	-0.0	263253.40625	9726.634765625	32.38299560546875
0.386	-0.0	-0.0	-0.0	-0.0	-0.0	-0.0	-0.877353847026825	9.89008617401123	-869.0306396484375	-0.0	-0.0	-0.0	-0.0	-0.0	-0.0	259857.359375	11451.2353515625	-414.0607604980469
0.3865	-0.0	-0.0	-0.0	-0.0	-0.0	-0.0	-2.915501117706299	7.772308349609375	-858.60302734375	-0.0	-0.0	-0.0	-0.0	-0.0	-0.0	256861.484375	13017.517578125	-832.02490234375
0.387	-0.0	-0.0	-0.0	-0.0	-0.0	-0.0	-5.856978416442871	5.913437843322754	-850.2330322265625	-0.0	-0.0	-0.0	-0.0	-0.0	-0.0	253992.390625	14263.3427734375	-1806.641357421875
0.3875	-0.0	-0.0	-0.0	-0.0	-0.0	-0.0	-9.304095268249512	4.5843353271484375	-846.335205078125	-0.0	-0.0	-0.0	-0.0	-0.0	-0.0	252461.65625	15805.908203125	-2435.085205078125
0.388	-0.0	-0.0	-0.0	-0.0	-0.0	-0.0	-11.26626968383789	4.5065789222717285	-842.8262939453125	-0.0	-0.0	-0.0	-0.0	-0.0	-0.0	251094.734375	16863.9609375	-3151.256103515625
0.3885	-0.0	-0.0	-0.0	-0.0	-0.0	-0.0	-13.124714851379396	4.851000308990479	-842.1536865234375	-0.0	-0.0	-0.0	-0.0	-0.0	-0.0	250532.375	18094.4609375	-3686.443115234375
0.389	-0.0	-0.0	-0.0	-0.0	-0.0	-0.0	-16.32050323486328	5.29248571395874	-844.5618286132812	-0.0	-0.0	-0.0	-0.0	-0.0	-0.0	251164.6875	19027.9609375	-4599.03271484375
0.3895	-0.0	-0.0	-0.0	-0.0	-0.0	-0.0	-19.06574821472168	6.533458232879639	-851.213134765625	-0.0	-0.0	-0.0	-0.0	-0.0	-0.0	252301.109375	19695.203125	-5260.85888671875
0.39	-0.0	-0.0	-0.0	-0.0	-0.0	-0.0	-20.13976287841797	7.230358600616455	-861.3190307617188	-0.0	-0.0	-0.0	-0.0	-0.0	-0.0	254632.09375	19709.18359375	-5501.1416015625
0.3905	-0.0	-0.0	-0.0	-0.0	-0.0	-0.0	-19.87367248535156	6.719784259796143	-870.396240234375	-0.0	-0.0	-0.0	-0.0	-0.0	-0.0	256977.203125	20015.64453125	-5441.767578125
0.391	-0.0	-0.0	-0.0	-0.0	-0.0	-0.0	-18.0158805847168	6.091677188873291	-877.7373657226562	-0.0	-0.0	-0.0	-0.0	-0.0	-0.0	259385.890625	20108.916015625	-4878.70654296875
0.3915	-0.0	-0.0	-0.0	-0.0	-0.0	-0.0	-16.48992347717285	6.169721603393555	-883.7938232421875	-0.0	-0.0	-0.0	-0.0	-0.0	-0.0	260394.984375	20021.97265625	-4257.275390625
0.392	-0.0	-0.0	-0.0	-0.0	-0.0	-0.0	-13.77133560180664	5.845034599304199	-887.8821411132812	-0.0	-0.0	-0.0	-0.0	-0.0	-0.0	261402.15625	20575.33984375	-3638.822509765625
0.3925	-0.0	-0.0	-0.0	-0.0	-0.0	-0.0	-11.73145580291748	6.629510879516602	-888.2736206054688	-0.0	-0.0	-0.0	-0.0	-0.0	-0.0	260908.96875	21046.01953125	-3245.465087890625
0.393	-0.0	-0.0	-0.0	-0.0	-0.0	-0.0	-10.04089069366455	6.624126434326172	-884.750244140625	-0.0	-0.0	-0.0	-0.0	-0.0	-0.0	259710.328125	22054.94921875	-2677.992919921875
0.3935	-0.0	-0.0	-0.0	-0.0	-0.0	-0.0	-9.480706214904783	5.564266204833984	-877.462646484375	-0.0	-0.0	-0.0	-0.0	-0.0	-0.0	257787.5	22674.8046875	-2466.49609375
0.394	-0.0	-0.0	-0.0	-0.0	-0.0	-0.0	-9.06001091003418	4.23944091796875	-868.745849609375	-0.0	-0.0	-0.0	-0.0	-0.0	-0.0	255279.921875	23515.8984375	-2437.81787109375
0.3945	-0.0	-0.0	-0.0	-0.0	-0.0	-0.0	-9.589524269104004	2.561328887939453	-861.0424194335938	-0.0	-0.0	-0.0	-0.0	-0.0	-0.0	252132.46875	24751.099609375	-2674.956787109375
0.395	-0.0	-0.0	-0.0	-0.0	-0.0	-0.0	-9.758186340332031	0.1032251417636871	-847.461669921875	-0.0	-0.0	-0.0	-0.0	-0.0	-0.0	248500.328125	26136.181640625	-2763.6669921875
0.3955	-0.0	-0.0	-0.0	-0.0	-0.0	-0.0	-10.467872619628906	-1.9339629411697388	-835.1826782226562	-0.0	-0.0	-0.0	-0.0	-0.0	-0.0	244773.125	27373.45703125	-2881.266357421875
0.396	-0.0	-0.0	-0.0	-0.0	-0.0	-0.0	-10.56908893585205	-3.28346586227417	-820.2186279296875	-0.0	-0.0	-0.0	-0.0	-0.0	-0.0	240487.140625	28533.458984375	-2974.7548828125
0.3965	-0.0	-0.0	-0.0	-0.0	-0.0	-0.0	-11.719325065612791	-5.829231262207031	-806.9517211914062	-0.0	-0.0	-0.0	-0.0	-0.0	-0.0	236011.578125	29526.017578125	-3008.001220703125
0.397	-0.0	-0.0	-0.0	-0.0	-0.0	-0.0	-15.058380126953123	-7.942564487457275	-795.7544555664062	-0.0	-0.0	-0.0	-0.0	-0.0	-0.0	232928.15625	30774.046875	-4038.45556640625
0.3975	-0.0	-0.0	-0.0	-0.0	-0.0	-0.0	-19.329103469848636	-9.967277526855469	-790.5309448242188	-0.0	-0.0	-0.0	-0.0	-0.0	-0.0	230801.71875	31652.400390625	-5462.3876953125
0.398	-0.0	-0.0	-0.0	-0.0	-0.0	-0.0	-24.39546585083008	-9.918635368347168	-790.4529418945312	-0.0	-0.0	-0.0	-0.0	-0.0	-0.0	230982.359375	32300.833984375	-7070.97412109375
0.3985	-0.0	-0.0	-0.0	-0.0	-0.0	-0.0	-28.715232849121094	-8.672365188598633	-796.3215942382812	-0.0	-0.0	-0.0	-0.0	-0.0	-0.0	232949.03125	32517.75	-8177.974609375
0.399	-0.0	-0.0	-0.0	-0.0	-0.0	-0.0	-28.831005096435547	-6.213489532470703	-804.79443359375	-0.0	-0.0	-0.0	-0.0	-0.0	-0.0	235731.234375	31949.669921875	-8422.7861328125
0.3995	-0.0	-0.0	-0.0	-0.0	-0.0	-0.0	-26.35059928894043	-3.02382493019104	-818.0347290039062	-0.0	-0.0	-0.0	-0.0	-0.0	-0.0	239538.21875	30877.822265625	-7917.15869140625
0.4	-0.0	-0.0	-0.0	-0.0	-0.0	-0.0	-21.54957771301269	0.9502030611038208	-831.9439697265625	-0.0	-0.0	-0.0	-0.0	-0.0	-0.0	244134.453125	29783.453125	-6553.1162109375
0.4005	-0.0	-0.0	-0.0	-0.0	-0.0	-0.0	-16.688518524169922	4.828779220581055	-844.58349609375	-0.0	-0.0	-0.0	-0.0	-0.0	-0.0	248346.578125	28961.935546875	-5325.36083984375
0.401	-0.0	-0.0	-0.0	-0.0	-0.0	-0.0	-13.31762981414795	7.76134443283081	-858.0557861328125	-0.0	-0.0	-0.0	-0.0	-0.0	-0.0	252017.390625	27990.744140625	-4551.00830078125
0.4015	-0.0	-0.0	-0.0	-0.0	-0.0	-0.0	-11.543639183044434	10.418230056762695	-867.8582763671875	-0.0	-0.0	-0.0	-0.0	-0.0	-0.0	254724.1875	27340.1015625	-4220.3623046875
0.402	-0.0	-0.0	-0.0	-0.0	-0.0	-0.0	-10.756830215454102	12.449569702148438	-872.1658325195312	-0.0	-0.0	-0.0	-0.0	-0.0	-0.0	256804.625	26800.638671875	-4214.2373046875
0.4025	-0.0	-0.0	-0.0	-0.0	-0.0	-0.0	-10.560413360595703	14.296672821044922	-875.004150390625	-0.0	-0.0	-0.0	-0.0	-0.0	-0.0	257829.6875	27027.37890625	-4075.537109375
0.403	-0.0	-0.0	-0.0	-0.0	-0.0	-0.0	-10.664809226989746	14.592507362365724	-875.7029418945312	-0.0	-0.0	-0.0	-0.0	-0.0	-0.0	257808.046875	26462.90625	-4046.0185546875
0.4035	-0.0	-0.0	-0.0	-0.0	-0.0	-0.0	-9.94353199005127	14.77733325958252	-873.8641357421875	-0.0	-0.0	-0.0	-0.0	-0.0	-0.0	257130.375	26677.03125	-3778.60009765625
0.404	-0.0	-0.0	-0.0	-0.0	-0.0	-0.0	-8.363035202026367	15.363954544067385	-868.6574096679688	-0.0	-0.0	-0.0	-0.0	-0.0	-0.0	255716.703125	26297.970703125	-3329.8173828125
0.4045	-0.0	-0.0	-0.0	-0.0	-0.0	-0.0	-7.193765163421631	15.363895416259766	-860.0087890625	-0.0	-0.0	-0.0	-0.0	-0.0	-0.0	253013.015625	26399.99609375	-2683.303466796875
0.405	-0.0	-0.0	-0.0	-0.0	-0.0	-0.0	-6.065422058105469	14.669635772705078	-848.6175537109375	-0.0	-0.0	-0.0	-0.0	-0.0	-0.0	249343.359375	26758.4375	-2462.702880859375
0.4055	-0.0	-0.0	-0.0	-0.0	-0.0	-0.0	-7.172940254211426	13.605731964111328	-839.3273315429688	-0.0	-0.0	-0.0	-0.0	-0.0	-0.0	245186.265625	27320.974609375	-2518.864501953125
0.406	-0.0	-0.0	-0.0	-0.0	-0.0	-0.0	-9.027240753173828	12.752187728881836	-824.930419921875	-0.0	-0.0	-0.0	-0.0	-0.0	-0.0	242227.359375	27574.86328125	-2934.23388671875
0.40650000000000003	-0.0	-0.0	-0.0	-0.0	-0.0	-0.0	-10.708141326904297	11.751075744628906	-819.4588623046875	-0.0	-0.0	-0.0	-0.0	-0.0	-0.0	238924.734375	28211.322265625	-3150.46044921875
